<svg width="40" height="40" viewBox="0 0 40 40" fill="none" xmlns="http://www.w3.org/2000/svg">
<rect x="16" width="24" height="24" rx="8" fill="#D0F2FF"/>
<path d="M7 12C6.05859 12 5.08594 12.3555 4.3125 13.0312C3.53906 13.707 3 14.7461 3 16C3 17.0625 3.44531 17.9688 4 18.6875C4.55469 19.4062 5.22656 19.9727 5.84375 20.5312C7.07813 21.6484 8 22.5664 8 24C8 24.1523 7.85156 24.5195 7.65625 24.8125C7.46094 25.1055 7.28125 25.2812 7.28125 25.2812L8.71875 26.6875C8.71875 26.6875 9.03906 26.3672 9.34375 25.9062C9.60547 25.5117 9.89063 25.0039 9.96875 24.3438C10.082 24.668 10.1914 25 10.3125 25.3125C11 27.0859 11.793 28.6758 12.6875 29.875C13.0117 30.3125 13.3477 30.6992 13.7188 31.0312C11.6523 31.1797 10 32.8984 10 35V36H22V35C22 32.875 20.3164 31.1484 18.2188 31.0312C18.5938 30.6992 18.9531 30.3086 19.2813 29.875C20.1797 28.6797 20.9609 27.0859 21.6563 25.3125C21.7852 24.9805 21.9102 24.625 22.0313 24.2812C22.0977 24.9688 22.3867 25.5 22.6563 25.9062C22.9609 26.3672 23.2813 26.6875 23.2813 26.6875L24.7188 25.2812C24.7188 25.2812 24.5391 25.1055 24.3438 24.8125C24.1484 24.5195 24 24.1523 24 24C24 22.5664 24.9219 21.6484 26.1563 20.5312C26.7734 19.9727 27.4453 19.4062 28 18.6875C28.5547 17.9688 29 17.0625 29 16C29 14.7461 28.4609 13.707 27.6875 13.0312C26.9141 12.3555 25.9414 12 25 12C23.7227 12 22.8477 12.582 22.375 13H9.625C9.15234 12.582 8.27734 12 7 12ZM7 14C7.47266 14 7.77734 14.1484 8 14.2812C8.02734 16.3203 8.37891 18.6328 8.9375 20.9062C8.40625 20.1875 7.74219 19.5898 7.15625 19.0625C6.52344 18.4922 5.94531 17.9648 5.5625 17.4688C5.17969 16.9727 5 16.543 5 16C5 15.3008 5.27344 14.8672 5.65625 14.5312C6.03906 14.1953 6.56641 14 7 14ZM25 14C25.4336 14 25.9609 14.1953 26.3438 14.5312C26.7266 14.8672 27 15.3008 27 16C27 16.543 26.8203 16.9727 26.4375 17.4688C26.0547 17.9648 25.4766 18.4922 24.8438 19.0625C24.2461 19.6016 23.5703 20.2227 23.0313 20.9688C23.6055 18.6797 23.9727 16.3477 24 14.2812C24.2227 14.1484 24.5273 14 25 14ZM10.125 15H21.875C21.7227 17.9727 20.9531 21.5977 19.7813 24.5938C19.1328 26.25 18.3828 27.6875 17.6563 28.6562C16.9297 29.625 16.2656 30 15.9688 30C15.6758 30 15.0352 29.625 14.3125 28.6562C13.5898 27.6875 12.832 26.2539 12.1875 24.5938C11.0234 21.5938 10.2773 17.957 10.125 15ZM15 18V23H17V18H15ZM14 33H18C18.7188 33 19.2109 33.4414 19.5625 34H12.4375C12.7891 33.4414 13.2813 33 14 33Z" fill="#212B36"/>
</svg>
