<svg width="48" height="48" viewBox="0 0 48 48" fill="none" xmlns="http://www.w3.org/2000/svg">
<rect x="24" y="24" width="24" height="24" rx="8" fill="#D6E4FF"/>
<path d="M25.5 0C24.6738 0 24 0.673828 24 1.5C24 2.32617 24.6738 3 25.5 3C26.3262 3 27 2.32617 27 1.5C27 0.673828 26.3262 0 25.5 0ZM21 4.5C20.1738 4.5 19.5 5.17383 19.5 6H15V9H16.5V20.4844L7.26562 32.3906C6.45117 33.4395 6 34.7227 6 36.0469C6 39.3223 8.67773 42 11.9531 42H36.0469C39.3223 42 42 39.3223 42 36.0469C42 34.7227 41.5488 33.4395 40.7344 32.3906L31.5 20.4844V9H33V6H22.5C22.5 5.17383 21.8262 4.5 21 4.5ZM19.5 9H28.5V21.5156L32.7656 27H15.2344L19.5 21.5156V9ZM25.5 15C24.6738 15 24 15.6738 24 16.5C24 17.3262 24.6738 18 25.5 18C26.3262 18 27 17.3262 27 16.5C27 15.6738 26.3262 15 25.5 15ZM12.8906 30H35.1094L38.3906 34.2188C38.7949 34.7402 39 35.3906 39 36.0469C39 37.7051 37.7051 39 36.0469 39H11.9531C10.2949 39 9 37.7051 9 36.0469C9 35.3906 9.20508 34.7402 9.60938 34.2188L12.8906 30Z" fill="#212B36"/>
</svg>
