<svg width="24" height="24" viewBox="0 0 24 24" fill="none" xmlns="http://www.w3.org/2000/svg">
<path d="M12 3C7.03711 3 3 7.03711 3 12C3 16.9629 7.03711 21 12 21C16.9629 21 21 16.9629 21 12C21 7.03711 16.9629 3 12 3ZM11.2266 4.54688C11.2354 4.54688 11.2412 4.54688 11.25 4.54688C11.2764 4.93945 11.6016 5.25 12 5.25C12.3984 5.25 12.7236 4.93945 12.75 4.54688C16.3037 4.89551 19.1045 7.69629 19.4531 11.25C19.0605 11.2764 18.75 11.6016 18.75 12C18.75 12.3984 19.0605 12.7236 19.4531 12.75C19.1045 16.3037 16.3037 19.1045 12.75 19.4531C12.7236 19.0605 12.3984 18.75 12 18.75C11.6016 18.75 11.2764 19.0605 11.25 19.4531C7.69629 19.1045 4.89551 16.3037 4.54688 12.75C4.93945 12.7236 5.25 12.3984 5.25 12C5.25 11.6016 4.93945 11.2764 4.54688 11.25C4.89551 7.70215 7.68457 4.9043 11.2266 4.54688ZM11.25 6.75V12.3047L11.4609 12.5391L14.4609 15.5391L15.5391 14.4609L12.75 11.6719V6.75H11.25Z" fill="#919EAB"/>
</svg>
