<svg width="48" height="48" viewBox="0 0 48 48" fill="none" xmlns="http://www.w3.org/2000/svg">
<rect x="24" width="24" height="24" rx="8" fill="#FFF7CD"/>
<path d="M6 9V29.9238L3 29.918V33C3 36.3368 5.77572 39 9.08203 39H38.918C42.2243 39 45 36.3368 45 33V30.0029L42 29.9971V9H6ZM9 12H39V29.9912L30.0029 29.9736L29.9971 32.9736L42 32.9971V33C42 34.7002 40.6517 36 38.918 36H9.08203C7.34834 36 6 34.7002 6 33V32.9238L17.9971 32.9502L18.0029 29.9502L9 29.9297V12ZM21.0029 29.9561L20.9971 32.9561L26.9971 32.9678L27.0029 29.9678L21.0029 29.9561Z" fill="#212B36"/>
</svg>
