<svg width="48" height="48" viewBox="0 0 48 48" fill="none" xmlns="http://www.w3.org/2000/svg">
<rect y="23" width="24" height="24" rx="8" fill="#D0F2FF"/>
<path d="M19.5 11V13.1094C12.0527 15.0312 6.61523 21.623 6.1875 29.5625C4.42969 30.1777 3 31.543 3 33.5V38H45V33.5C45 31.543 43.5703 30.1777 41.8125 29.5625C41.3848 21.623 35.9473 15.0312 28.5 13.1094V11H19.5ZM22.5469 14H25.5C25.4707 14.1699 25.4707 14.3457 25.5 14.5156V23H28.5V16.25C34.1074 18.0195 38.3496 22.959 38.9531 29H36V32H40.5C41.3496 32 42 32.6504 42 33.5V35H6V33.5C6 32.6504 6.65039 32 7.5 32H12V29H9.04688C9.65039 22.959 13.8926 18.0195 19.5 16.25V23H22.5V14.75C22.5762 14.5098 22.5938 14.252 22.5469 14Z" fill="#212B36"/>
</svg>
