<svg width="23" height="25" viewBox="0 0 23 25" fill="none" xmlns="http://www.w3.org/2000/svg">
<path d="M11.5 0.046875C7.25898 0.046875 3.8 3.47727 3.8 7.68324C3.8 10.3125 5.15352 12.6477 7.20312 14.0241C3.28008 15.6946 0.5 19.5554 0.5 24.0469H2.7C2.7 20.8935 4.38008 18.1491 6.89375 16.6151C7.63281 18.4134 9.4332 19.6832 11.5 19.6832C13.5668 19.6832 15.3672 18.4134 16.1063 16.6151C18.6199 18.1491 20.3 20.8935 20.3 24.0469H22.5C22.5 19.5554 19.7199 15.6946 15.7969 14.0241C17.8465 12.6477 19.2 10.3125 19.2 7.68324C19.2 3.47727 15.741 0.046875 11.5 0.046875ZM11.5 2.22869C14.5508 2.22869 17 4.65767 17 7.68324C17 10.7088 14.5508 13.1378 11.5 13.1378C8.44922 13.1378 6 10.7088 6 7.68324C6 4.65767 8.44922 2.22869 11.5 2.22869ZM11.5 15.3196C12.4023 15.3196 13.2617 15.4474 14.0781 15.6946C13.6957 16.7472 12.6988 17.5014 11.5 17.5014C10.3012 17.5014 9.3043 16.7472 8.92188 15.6946C9.73828 15.4474 10.5977 15.3196 11.5 15.3196Z" fill="#919EAB"/>
</svg>
