<svg width="24" height="24" viewBox="0 0 24 24" fill="none" xmlns="http://www.w3.org/2000/svg">
<path d="M12 0C5.38281 0 0 5.38281 0 12C0 18.6172 5.38281 24 12 24C18.6172 24 24 18.6172 24 12C24 5.38281 18.6172 0 12 0ZM10.9687 2.0625C10.9805 2.0625 10.9883 2.0625 11 2.0625C11.0352 2.58594 11.4687 3 12 3C12.5312 3 12.9648 2.58594 13 2.0625C17.7383 2.52734 21.4727 6.26172 21.9375 11C21.4141 11.0352 21 11.4688 21 12C21 12.5312 21.4141 12.9648 21.9375 13C21.4727 17.7383 17.7383 21.4727 13 21.9375C12.9648 21.4141 12.5312 21 12 21C11.4687 21 11.0352 21.4141 11 21.9375C6.26172 21.4727 2.52734 17.7383 2.0625 13C2.58594 12.9648 3 12.5312 3 12C3 11.4688 2.58594 11.0352 2.0625 11C2.52734 6.26953 6.24609 2.53906 10.9687 2.0625ZM11 5V12.4062L11.2812 12.7188L15.2812 16.7188L16.7187 15.2812L13 11.5625V5H11Z" fill="#919EAB"/>
</svg>
