<svg width="24" height="24" viewBox="0 0 24 24" fill="none" xmlns="http://www.w3.org/2000/svg">
<path d="M12.0001 3.12982C7.10254 3.12982 3.12988 7.10248 3.12988 12C3.12988 16.8976 7.10254 20.8702 12.0001 20.8702C16.8976 20.8702 20.8703 16.8976 20.8703 12C20.8703 7.10248 16.8976 3.12982 12.0001 3.12982ZM16.6623 9.25512L11.9054 16.2701C11.7648 16.4784 11.5403 16.619 11.3186 16.619C11.0968 16.619 10.8534 16.4973 10.6966 16.3432L7.90572 13.5496C7.71642 13.3603 7.71642 13.0493 7.90572 12.86L8.59533 12.1704C8.78463 11.9811 9.09563 11.9811 9.28223 12.1704L11.0995 13.985L15.0479 8.15987C15.1993 7.93812 15.5049 7.88132 15.7266 8.03006L16.5352 8.57904C16.7543 8.72778 16.8138 9.03337 16.6623 9.25512Z" fill="#54D62C"/>
</svg>
