<svg width="48" height="48" viewBox="0 0 48 48" fill="none" xmlns="http://www.w3.org/2000/svg">
<rect x="24" width="24" height="24" rx="8" fill="#E9FCD4"/>
<path d="M32.4404 5L26.4715 10.9223L23.0674 7.51813L20.9223 9.66321L22.0415 10.7824L14.3938 18.4301C12.5868 20.237 12.5868 23.1982 14.3938 25.0052L17.1451 27.7565L6 38.8549L8.14508 41L19.2435 29.8549L21.9948 32.6062C23.8018 34.4132 26.763 34.4132 28.5699 32.6062L36.2176 24.9585L37.3368 26.0777L39.4819 23.9326L36.0777 20.5285L42 14.5596L39.9016 12.4611L33.9326 18.3834L28.6166 13.0674L34.5389 7.09845L32.4404 5ZM24.1399 12.8808L34.1192 22.8601L26.4715 30.5078C25.8944 31.0848 24.6703 31.0848 24.0933 30.5078L16.4922 22.9067C15.9152 22.3297 15.9152 21.1056 16.4922 20.5285L24.1399 12.8808Z" fill="#212B36"/>
</svg>
