<svg width="24" height="24" viewBox="0 0 24 24" fill="none" xmlns="http://www.w3.org/2000/svg">
<path d="M12 3.00061C7.03711 3.00061 3 7.03772 3 12.0006C3 16.9635 7.03711 21.0006 12 21.0006C16.9629 21.0006 21 16.9635 21 12.0006C21 7.03772 16.9629 3.00061 12 3.00061ZM12 4.50061C16.1514 4.50061 19.5 7.84924 19.5 12.0006C19.5 16.152 16.1514 19.5006 12 19.5006C7.84863 19.5006 4.5 16.152 4.5 12.0006C4.5 7.84924 7.84863 4.50061 12 4.50061ZM9 6.84436V17.1569L10.125 16.5006L16.875 12.6569L18 12.0006L16.875 11.3444L10.125 7.50061L9 6.84436ZM10.5 9.42249L14.9766 12.0006L10.5 14.5787V9.42249Z" fill="#212B36"/>
</svg>
