<svg width="20" height="20" viewBox="0 0 20 20" fill="none" xmlns="http://www.w3.org/2000/svg">
<path d="M18.6 15.1791C18.6 15.4041 18.5422 15.7009 18.3156 16.0166C18.2969 16.0416 16.425 18.5994 15.4 18.5994L15.3391 18.5962C12.9187 18.4775 9.925 16.6494 6.4375 13.1619C2.95156 9.67593 1.12344 6.68218 1.00312 4.26186L1.00156 4.22124C1.00156 4.2103 0.999999 4.19936 0.999999 4.18843C0.999999 3.14155 3.55781 1.30249 3.58281 1.28374C4.24687 0.810301 4.98906 0.982176 5.29531 1.41186C5.50625 1.69155 7.44219 4.6478 7.65781 5.00874C7.87969 5.39624 7.8375 5.92749 7.55312 6.40093C7.4 6.68218 6.89844 7.55874 6.66406 7.96499C6.91406 8.32749 7.58594 9.21499 8.99531 10.5978C10.3812 11.9853 11.2719 12.6712 11.6375 12.9322C12.0469 12.6962 12.9219 12.1962 13.2125 12.0384C13.7297 11.7556 14.2641 11.7228 14.6062 11.9509C14.9453 12.1541 17.9391 14.1259 18.1859 14.3041C18.4109 14.4634 18.5594 14.7353 18.5922 15.0462C18.5969 15.0869 18.6 15.1306 18.6 15.1791Z" fill="#1890FF"/>
</svg>
