<svg width="40" height="42" viewBox="0 0 40 42" fill="none" xmlns="http://www.w3.org/2000/svg">
<rect x="16" width="24" height="24" rx="8" fill="#D0F2FF"/>
<path d="M16 15.6784C9.38281 15.6784 4 20.6284 4 26.7136C4 32.7988 9.38281 37.7488 16 37.7488C22.6172 37.7488 28 32.7988 28 26.7136C28 20.6284 22.6172 15.6784 16 15.6784ZM16 17.5176C17.9688 17.5176 19.7969 18.0564 21.3438 18.9545L20.5312 19.0407L20.7188 20.8799L19.6562 20.4488L18.7812 21.1385L18.9375 23.0352L21.0938 22.403L23.7812 23.2076L23.0938 24.3571L21.4688 23.4375L19.7188 23.6674L18 24.8457L17.0312 27.6045L18.9688 29.0701C18.9688 29.0701 20.957 28.754 21.0625 28.754C21.168 28.754 21.9062 30.4208 21.9062 30.4208L20.3125 35.0188C19.0117 35.5899 17.543 35.9096 16 35.9096C15.6836 35.9096 15.3711 35.8773 15.0625 35.8522L13.9688 34.0992L15.0312 30.4208L11 27.6332H7.28125L6.3125 25.8228L9 23.8686L13 22.1156L12.4062 19.6729L14.125 19.3281L14.9375 20.3626L17.9375 19.8453L17.4062 17.7188L15.1875 17.5751C15.4531 17.5571 15.7266 17.5176 16 17.5176ZM14.875 17.5751L13.3125 18.1786L12.5625 18.0636C13.3008 17.8158 14.0664 17.6577 14.875 17.5751ZM6.0625 27.4321L7.03125 28.4666V30.3633L8.90625 32.26H10.0625L12.9062 35.4786C9.13281 34.3542 6.37891 31.211 6.0625 27.4321Z" fill="#212B36"/>
</svg>
