<svg width="40" height="42" viewBox="0 0 40 42" fill="none" xmlns="http://www.w3.org/2000/svg">
<rect x="16" width="24" height="24" rx="8" fill="#FFF9C8"/>
<path d="M15.1602 16.598L12 24.2458V25.794H14V24.5835L14.2598 23.9548H17.7402L18 24.5835V25.794H20V24.2458L16.8398 16.598H15.1602ZM16 19.743L16.9805 22.1156H15.0195L16 19.743ZM5 27.6332V36.8293H10C11.6499 36.8293 13 35.5877 13 34.0704C13 33.3544 12.659 32.723 12.168 32.2312C12.659 31.7395 13 31.1081 13 30.392C13 28.8748 11.6499 27.6332 10 27.6332H5ZM22.668 27.6332C20.6546 27.6332 19 29.1536 19 31.0045V33.4562C19 35.3077 20.6533 36.8293 22.666 36.8293H23.332C25.3454 36.8293 27 35.3077 27 33.4562V33.1508H25V33.4562C25 34.3138 24.2646 34.9901 23.332 34.9901H22.666C21.7348 34.9901 21 34.3138 21 33.4562V31.0045C21 30.1481 21.7354 29.4724 22.668 29.4724H23.334C24.2652 29.4724 25 30.1487 25 31.0063V31.3116H27V31.0063C27 29.1548 25.3467 27.6332 23.334 27.6332H22.668ZM7 29.4724H10C10.4841 29.4724 11 29.9469 11 30.392C11 30.8372 10.4841 31.3116 10 31.3116H9H7V29.4724ZM7 33.1508H9H10C10.4841 33.1508 11 33.6253 11 34.0704C11 34.5156 10.4841 34.9901 10 34.9901H7V33.1508Z" fill="#212B36"/>
</svg>
