<svg width="48" height="48" viewBox="0 0 48 48" fill="none" xmlns="http://www.w3.org/2000/svg">
<rect x="1" y="24" width="24" height="24" rx="8" fill="#FFE7D9"/>
<path d="M30.5 8V16.2031L26 18.875V14.3281L23.75 15.7344L18.5 18.875V14.3281L16.25 15.7344L8.75 20.2344L8 20.6562V41H41V8H30.5ZM33.5 11H38V38H11V22.2969L15.5 19.625V24.1719L17.75 22.7656L23 19.625V24.1719L25.25 22.7656L32.75 18.2656L33.5 17.8438V11ZM14 26V29H17V26H14ZM20 26V29H23V26H20ZM26 26V29H29V26H26ZM32 26V29H35V26H32ZM14 32V35H17V32H14ZM20 32V35H23V32H20ZM26 32V35H29V32H26ZM32 32V35H35V32H32Z" fill="#212B36"/>
</svg>
