<svg width="48" height="48" viewBox="0 0 48 48" fill="none" xmlns="http://www.w3.org/2000/svg">
<rect x="24" y="24" width="24" height="24" rx="8" fill="#E6D6FF"/>
<path d="M19.7778 5L19.5432 6.21875L18.6519 10.6719C17.221 11.2344 15.9309 12.0254 14.758 12.9688L10.3951 11.4688L9.22222 11.0938L8.61235 12.1719L5.60988 17.3281L5 18.4062L5.89136 19.2031L9.26914 22.1562C9.14599 22.9238 8.98765 23.6914 8.98765 24.5C8.98765 25.3086 9.14599 26.0762 9.26914 26.8438L5.89136 29.7969L5 30.5938L5.60988 31.6719L8.61235 36.8281L9.22222 37.9062L10.3951 37.5312L14.758 36.0312C15.9309 36.9746 17.221 37.7656 18.6519 38.3281L19.5432 42.7812L19.7778 44H28.2222L28.4568 42.7812L29.3481 38.3281C30.779 37.7656 32.0691 36.9746 33.242 36.0312L37.6049 37.5312L38.7778 37.9062L39.3877 36.8281L42.3901 31.6719L43 30.5938L42.1086 29.7969L38.7309 26.8438C38.854 26.0762 39.0123 25.3086 39.0123 24.5C39.0123 23.6914 38.854 22.9238 38.7309 22.1562L42.1086 19.2031L43 18.4062L42.3901 17.3281L39.3877 12.1719L38.7778 11.0938L37.6049 11.4688L33.242 12.9688C32.0691 12.0254 30.779 11.2344 29.3481 10.6719L28.4568 6.21875L28.2222 5H19.7778ZM22.2173 8H25.7827L26.5333 11.8906L26.721 12.7812L27.5654 13.0625C29.2719 13.5957 30.8201 14.498 32.116 15.6875L32.7728 16.2969L33.6173 16.0156L37.4173 14.7031L39.2 17.75L36.1975 20.4219L35.4938 20.9844L35.7284 21.875C35.9219 22.7305 36.0099 23.6035 36.0099 24.5C36.0099 25.3965 35.9219 26.2695 35.7284 27.125L35.5407 28.0156L36.1975 28.5781L39.2 31.25L37.4173 34.2969L33.6173 32.9844L32.7728 32.7031L32.116 33.3125C30.8201 34.502 29.2719 35.4043 27.5654 35.9375L26.721 36.2188L26.5333 37.1094L25.7827 41H22.2173L21.4667 37.1094L21.279 36.2188L20.4346 35.9375C18.7281 35.4043 17.1799 34.502 15.884 33.3125L15.2272 32.7031L14.3827 32.9844L10.5827 34.2969L8.8 31.25L11.8025 28.5781L12.5062 28.0156L12.2716 27.125C12.0781 26.2695 11.9901 25.3965 11.9901 24.5C11.9901 23.6035 12.0781 22.7305 12.2716 21.875L12.5062 20.9844L11.8025 20.4219L8.8 17.75L10.5827 14.7031L14.3827 16.0156L15.2272 16.2969L15.884 15.6875C17.1799 14.498 18.7281 13.5957 20.4346 13.0625L21.279 12.7812L21.4667 11.8906L22.2173 8ZM24 17C19.8716 17 16.4938 20.375 16.4938 24.5C16.4938 28.625 19.8716 32 24 32C28.1284 32 31.5062 28.625 31.5062 24.5C31.5062 20.375 28.1284 17 24 17ZM24 20C26.504 20 28.5037 21.998 28.5037 24.5C28.5037 27.002 26.504 29 24 29C21.496 29 19.4963 27.002 19.4963 24.5C19.4963 21.998 21.496 20 24 20Z" fill="#212B36"/>
</svg>
