<svg width="48" height="48" viewBox="0 0 48 48" fill="none" xmlns="http://www.w3.org/2000/svg">
<rect width="24" height="24" rx="8" fill="#FFF7CD"/>
<path d="M21.5 8C19.8594 8 18.5 9.38095 18.5 11.0476V12.5714H9.5C7.0332 12.5714 5 14.6369 5 17.1429V40H44V17.1429C44 14.6369 41.9668 12.5714 39.5 12.5714H30.5V11.0476C30.5 9.38095 29.1406 8 27.5 8H21.5ZM21.5 11.0476H27.5V12.5714H21.5V11.0476ZM9.5 15.619H39.5C40.3496 15.619 41 16.2798 41 17.1429V36.9524H8V17.1429C8 16.2798 8.65039 15.619 9.5 15.619ZM23 20.1905V24.7619H18.5V27.8095H23V32.381H26V27.8095H30.5V24.7619H26V20.1905H23Z" fill="#212B36"/>
</svg>
