<svg width="30" height="30" viewBox="0 0 30 30" fill="none" xmlns="http://www.w3.org/2000/svg">
<path d="M23.7 21.122H6.98003C6.71998 21.122 6.47059 21.2253 6.28671 21.4092C6.10283 21.593 5.99953 21.8424 5.99953 22.1025C5.99953 22.3625 6.10283 22.6119 6.28671 22.7958C6.47059 22.9797 6.71998 23.083 6.98003 23.083H23.7C23.9601 23.083 24.2095 22.9797 24.3933 22.7958C24.5772 22.6119 24.6805 22.3625 24.6805 22.1025C24.6805 21.8424 24.5772 21.593 24.3933 21.4092C24.2095 21.2253 23.9601 21.122 23.7 21.122V21.122ZM23.7 13.56H6.98003C6.84863 13.5558 6.71774 13.578 6.59511 13.6254C6.47248 13.6728 6.36063 13.7444 6.2662 13.8358C6.17177 13.9273 6.09669 14.0368 6.04541 14.1578C5.99414 14.2789 5.96771 14.409 5.96771 14.5405C5.96771 14.6719 5.99414 14.8021 6.04541 14.9231C6.09669 15.0442 6.17177 15.1537 6.2662 15.2451C6.36063 15.3366 6.47248 15.4081 6.59511 15.4555C6.71774 15.5029 6.84863 15.5252 6.98003 15.521H23.7C23.8314 15.5252 23.9623 15.5029 24.0849 15.4555C24.2076 15.4081 24.3194 15.3366 24.4139 15.2451C24.5083 15.1537 24.5834 15.0442 24.6346 14.9231C24.6859 14.8021 24.7123 14.6719 24.7123 14.5405C24.7123 14.409 24.6859 14.2789 24.6346 14.1578C24.5834 14.0368 24.5083 13.9273 24.4139 13.8358C24.3194 13.7444 24.2076 13.6728 24.0849 13.6254C23.9623 13.578 23.8314 13.5558 23.7 13.56V13.56ZM6.98003 7.95997H23.7C23.8314 7.96417 23.9623 7.94192 24.0849 7.89453C24.2076 7.84714 24.3194 7.77559 24.4139 7.68413C24.5083 7.59267 24.5834 7.48316 24.6346 7.36211C24.6859 7.24106 24.7123 7.11094 24.7123 6.97947C24.7123 6.84801 24.6859 6.71789 24.6346 6.59684C24.5834 6.47579 24.5083 6.36628 24.4139 6.27482C24.3194 6.18335 24.2076 6.11181 24.0849 6.06442C23.9623 6.01703 23.8314 5.99478 23.7 5.99897H6.98003C6.84863 5.99478 6.71774 6.01703 6.59511 6.06442C6.47248 6.11181 6.36063 6.18335 6.2662 6.27482C6.17177 6.36628 6.09669 6.47579 6.04541 6.59684C5.99414 6.71789 5.96771 6.84801 5.96771 6.97947C5.96771 7.11094 5.99414 7.24106 6.04541 7.36211C6.09669 7.48316 6.17177 7.59267 6.2662 7.68413C6.36063 7.77559 6.47248 7.84714 6.59511 7.89453C6.71774 7.94192 6.84863 7.96417 6.98003 7.95997V7.95997Z" fill="black"/>
</svg>
