<svg width="24" height="24" viewBox="0 0 24 24" fill="none" xmlns="http://www.w3.org/2000/svg">
<path fill-rule="evenodd" clip-rule="evenodd" d="M11.1949 2.78098C11.4514 2.30099 11.9533 2 12.5004 2C13.0476 2 13.5495 2.30099 13.806 2.78098L16.2833 7.42584C16.3114 7.47983 16.3527 7.52583 16.4019 7.56183C16.4512 7.59783 16.5086 7.62183 16.5689 7.63183L21.777 8.5388C22.3161 8.6328 22.7576 9.01479 22.9276 9.53177C23.0966 10.0488 22.9648 10.6167 22.5836 11.0077L18.9064 14.7856C18.8642 14.8296 18.832 14.8826 18.8129 14.9396C18.7937 14.9976 18.7887 15.0586 18.7968 15.1196L19.538 20.3244C19.6145 20.8624 19.3862 21.3994 18.9436 21.7194C18.5011 22.0394 17.9177 22.0894 17.4258 21.8504L12.6764 19.5405C12.6221 19.5135 12.5618 19.4995 12.5004 19.4995C12.4391 19.4995 12.3787 19.5135 12.3234 19.5395L7.57397 21.8494C7.08213 22.0884 6.49876 22.0374 6.05621 21.7184C5.61365 21.3984 5.38534 20.8624 5.46178 20.3234L6.20306 15.1186C6.21211 15.0586 6.20608 14.9966 6.18696 14.9386C6.16785 14.8806 6.13667 14.8276 6.09342 14.7846L2.4162 11.0067C2.036 10.6157 1.90323 10.0478 2.07221 9.53077C2.24119 9.01379 2.68374 8.6318 3.22285 8.5378L8.43092 7.63083C8.49127 7.61983 8.5486 7.59583 8.59788 7.56083C8.64717 7.52483 8.68841 7.47883 8.71657 7.42484L11.1949 2.78098Z" fill="#FFE16A"/>
</svg>
