<svg width="40" height="40" viewBox="0 0 40 40" fill="none" xmlns="http://www.w3.org/2000/svg">
<rect x="16" width="24" height="24" rx="8" fill="#E9FCD4"/>
<path d="M16 11C9.95313 11 5 15.9531 5 22V28C5 29.293 5.84375 30.3945 7 30.8125V31C7 33.7461 9.25391 36 12 36H13.2813C13.6289 36.5977 14.2617 37 15 37H17C18.1016 37 19 36.1016 19 35C19 33.8984 18.1016 33 17 33H15C14.2617 33 13.6289 33.4023 13.2813 34H12C10.3438 34 9 32.6562 9 31H11V22H7C7 17.0469 11.0469 13 16 13C20.9531 13 25 17.0469 25 22H21V31H24C25.6445 31 27 29.6445 27 28V22C27 15.9531 22.0469 11 16 11ZM7 24H9V29H8C7.44531 29 7 28.5547 7 28V24ZM23 24H25V28C25 28.5547 24.5547 29 24 29H23V24Z" fill="#212B36"/>
</svg>
