<svg width="20" height="20" viewBox="0 0 20 20" fill="none" xmlns="http://www.w3.org/2000/svg">
<path d="M16.3229 4.17328C17.0258 4.17328 17.2108 4.70495 17.0029 5.95328C16.765 7.38078 16.0796 12.107 15.5329 15.0491C15.3237 16.1749 14.9467 16.6604 14.3979 16.6604C14.0962 16.6604 13.7429 16.5137 13.3371 16.2458C12.7871 15.8824 10.0104 14.0462 9.4075 13.6149C8.8575 13.222 8.09875 12.7491 9.05041 11.8183C9.38916 11.4866 11.6087 9.36703 13.3379 7.71744C13.5225 7.54119 13.3679 7.27245 13.1629 7.27245C13.1162 7.27245 13.0667 7.28661 13.0183 7.3187C10.6875 8.86453 7.45541 11.0099 7.04416 11.2895C6.63291 11.5687 6.23208 11.7479 5.69791 11.7479C5.425 11.7479 5.11708 11.7012 4.755 11.597C3.94541 11.3645 3.155 11.0874 2.84708 10.9816C1.66166 10.5749 1.94291 10.0479 3.09416 9.54119C7.71 7.51078 13.6829 5.03495 14.5075 4.69245C15.3108 4.3587 15.9075 4.17328 16.3229 4.17328ZM16.3229 2.92328C15.7529 2.92328 15.0667 3.10703 14.0287 3.53745L13.9042 3.58911C9.47291 5.42911 5.455 7.13661 2.59083 8.39661C2.14333 8.5937 0.78208 9.19245 0.834997 10.4449C0.857497 10.9854 1.155 11.722 2.44166 12.1633L2.53666 12.1958C2.89583 12.3195 3.64375 12.5774 4.41041 12.7979C4.87708 12.932 5.29875 12.997 5.69833 12.997C6.39166 12.997 6.92875 12.7991 7.34875 12.5687C7.34666 12.6387 7.34833 12.7091 7.35375 12.7799C7.42958 13.7433 8.17458 14.2716 8.61958 14.5874L8.68166 14.6316C9.33875 15.1016 12.3125 17.0662 12.6492 17.2883C13.2829 17.7066 13.855 17.9095 14.3987 17.9095C15.2537 17.9095 16.3583 17.4529 16.7625 15.277C17.1462 13.2133 17.5896 10.3304 17.9133 8.22536C18.0512 7.32703 18.1646 6.59036 18.2367 6.15828C18.3821 5.28578 18.4487 4.29745 17.8417 3.5812C17.5867 3.2812 17.1167 2.92328 16.3229 2.92328Z" fill="#F5F7FA"/>
</svg>
