<svg width="24" height="25" viewBox="0 0 24 25" fill="none" xmlns="http://www.w3.org/2000/svg">
<path d="M11.4844 22.2502L11.7188 22.0393L16.8047 17.0002L20.25 17.0002L20.25 5.00024L7.61719 5.00024C6.55957 5.00024 5.63672 5.74731 5.41406 6.78149L3.79688 14.2815C3.50098 15.6672 4.58496 17.0002 6 17.0002L10.3125 17.0002L10.1719 17.5627C10.0195 17.6799 9.92285 17.7297 9.70313 18.0315C9.35156 18.512 9 19.2561 9 20.2581C9 21.3274 9.9668 22.2502 11.1797 22.2502L11.4844 22.2502ZM10.9453 20.6799C10.6289 20.6184 10.5 20.4895 10.5 20.2581C10.5 19.5813 10.7051 19.1624 10.8984 18.8987C11.0918 18.635 11.2266 18.5706 11.2266 18.5706L11.4844 18.4299L11.5781 18.1252L12.0234 16.4377L12.2578 15.5002L6 15.5002C5.50488 15.5002 5.1709 15.0696 5.27344 14.5862L6.86719 7.08618C6.94336 6.73462 7.25977 6.50024 7.61719 6.50024L15.75 6.50024L15.75 15.9456L10.9453 20.6799ZM18.75 15.5002L17.25 15.5002L17.25 6.50024L18.75 6.50024L18.75 15.5002Z" fill="#FF4842"/>
</svg>
