<svg width="24" height="25" viewBox="0 0 24 25" fill="none" xmlns="http://www.w3.org/2000/svg">
<path d="M12.5156 2.75024L12.2812 2.96118L7.19531 8.00024H3.75V20.0002H16.3828C17.4404 20.0002 18.3633 19.2532 18.5859 18.219L20.2031 10.719C20.499 9.33325 19.415 8.00024 18 8.00024H13.6875L13.8281 7.43774C13.9805 7.32056 14.0771 7.27075 14.2969 6.96899C14.6484 6.48853 15 5.74439 15 4.74243C15 3.6731 14.0332 2.75024 12.8203 2.75024H12.5156ZM13.0547 4.32056C13.3711 4.38208 13.5 4.51099 13.5 4.74243C13.5 5.41919 13.2949 5.83814 13.1016 6.10181C12.9082 6.36548 12.7734 6.42993 12.7734 6.42993L12.5156 6.57056L12.4219 6.87524L11.9766 8.56274L11.7422 9.50024H18C18.4951 9.50024 18.8291 9.93091 18.7266 10.4143L17.1328 17.9143C17.0566 18.2659 16.7402 18.5002 16.3828 18.5002H8.25V9.05493L13.0547 4.32056ZM5.25 9.50024H6.75V18.5002H5.25V9.50024Z" fill="#1890FF"/>
</svg>
