<svg width="24" height="24" viewBox="0 0 24 24" fill="none" xmlns="http://www.w3.org/2000/svg">
<path d="M9.98624 2V3.52H14.4759V2H9.98624ZM18.7552 3.73375L17.6795 4.82625L18.2641 5.42L17.4924 6.2275C16.066 5.01922 14.2275 4.28 12.2311 4.28C7.69464 4.28 4 8.0325 4 12.64C4 17.2475 7.69464 21 12.2311 21C16.7675 21 20.4622 17.2475 20.4622 12.64C20.4622 10.6123 19.7344 8.745 18.5447 7.29625L19.3398 6.5125L19.9243 7.10625L21 6.01375L18.7552 3.73375ZM12.2311 5.8C15.9579 5.8 18.9656 8.85484 18.9656 12.64C18.9656 16.4252 15.9579 19.48 12.2311 19.48C8.5043 19.48 5.49656 16.4252 5.49656 12.64C5.49656 8.85484 8.5043 5.8 12.2311 5.8ZM9.02751 8.29375L7.95186 9.38625L10.7813 12.26C10.7491 12.3817 10.7345 12.5094 10.7345 12.64C10.7345 13.4802 11.4039 14.16 12.2311 14.16C13.0583 14.16 13.7276 13.4802 13.7276 12.64C13.7276 11.7998 13.0583 11.12 12.2311 11.12C12.1025 11.12 11.9768 11.1348 11.8569 11.1675L9.02751 8.29375Z" fill="#FFC107"/>
</svg>
