<svg width="22" height="22" viewBox="0 0 22 22" fill="none" xmlns="http://www.w3.org/2000/svg">
<path d="M14.6666 2.75C12.1772 2.75 10.1569 4.7615 10.103 7.23844C7.90196 6.97446 6.46869 6.15152 5.58948 5.34066C4.61446 4.44142 4.30579 3.6425 4.30579 3.6425C4.26073 3.52896 4.18623 3.42947 4.08996 3.35427C3.99369 3.27908 3.87913 3.23089 3.75806 3.21466C3.63698 3.19843 3.51377 3.21475 3.4011 3.26194C3.28843 3.30913 3.19036 3.38549 3.11699 3.48315C3.11699 3.48315 2.29163 4.58333 2.29163 6.1875C2.29163 7.10462 2.5812 7.78321 2.92631 8.35832C2.9136 8.35236 2.82784 8.32251 2.82784 8.32251C2.71827 8.2678 2.59607 8.24335 2.47389 8.25169C2.3517 8.26003 2.23396 8.30086 2.13283 8.36995C2.03171 8.43903 1.95087 8.53388 1.89869 8.64468C1.8465 8.75547 1.82485 8.8782 1.83598 9.00016C1.83598 9.00016 2.1006 10.9344 3.91907 12.3481L3.72929 12.3956C3.62628 12.4213 3.53062 12.4705 3.44981 12.5394C3.369 12.6083 3.30525 12.6949 3.26354 12.7926C3.22183 12.8902 3.2033 12.9962 3.2094 13.1022C3.2155 13.2082 3.24607 13.3114 3.29871 13.4036C3.29871 13.4036 3.60707 13.9252 4.25297 14.4742C4.63594 14.7997 5.1985 15.1356 5.86162 15.4464C5.04725 15.744 3.83292 16.0417 2.06246 16.0417C1.93035 16.0417 1.80103 16.0797 1.68997 16.1513C1.57892 16.2228 1.49083 16.3249 1.43624 16.4452C1.38166 16.5655 1.36289 16.699 1.38219 16.8297C1.40149 16.9604 1.45803 17.0827 1.54505 17.1821C1.54505 17.1821 2.0704 17.7609 3.10893 18.2644C4.14746 18.7679 5.74722 19.25 8.0208 19.25C12.0173 19.25 14.8888 17.3329 16.6808 14.903C18.4728 12.4731 19.25 9.56134 19.25 7.33333C19.25 7.19196 19.2411 7.05258 19.2285 6.91439C20.1961 5.98198 20.5593 5.28102 20.5766 5.24666C20.6637 5.07204 20.6313 4.86232 20.4961 4.72298C20.3613 4.58319 20.1524 4.54382 19.9751 4.62541L19.9008 4.65942C19.8371 4.68876 19.7734 4.71828 19.7092 4.74715C19.8957 4.44969 20.0429 4.13182 20.1451 3.80273C20.202 3.62123 20.1406 3.42235 19.9903 3.30501C19.8399 3.18768 19.6329 3.17512 19.4702 3.27458C18.91 3.61504 18.373 3.85339 17.8141 4.0131C16.9916 3.23284 15.8844 2.75 14.6666 2.75ZM14.6666 4.125C16.4464 4.125 17.875 5.55354 17.875 7.33333C17.875 9.23032 17.1625 11.9331 15.5743 14.0866C13.9862 16.2401 11.5868 17.875 8.0208 17.875C6.29508 17.875 5.14713 17.5628 4.28699 17.2251C5.18799 17.0852 5.96377 16.8985 6.52137 16.6826C7.4883 16.3083 8.01006 15.8761 8.01006 15.8761C8.10576 15.7939 8.17703 15.687 8.21606 15.5671C8.2551 15.4472 8.26039 15.3188 8.23137 15.1961C8.20235 15.0734 8.14013 14.961 8.05152 14.8712C7.96291 14.7815 7.85132 14.7178 7.72897 14.6873C6.48105 14.3753 5.6807 13.8707 5.17859 13.4501L5.89563 13.2711C6.03744 13.2357 6.16427 13.156 6.25774 13.0437C6.3512 12.9313 6.40643 12.7921 6.41541 12.6462C6.42439 12.5003 6.38666 12.3554 6.30768 12.2324C6.2287 12.1094 6.11259 12.0148 5.9762 11.9623C4.48885 11.3903 3.86428 10.5813 3.54489 9.9034C3.93354 9.98386 4.29542 10.0833 4.81246 10.0833C4.96729 10.0832 5.11755 10.0308 5.2389 9.93468C5.36026 9.83852 5.4456 9.70423 5.48113 9.55353C5.51665 9.40283 5.50028 9.24455 5.43465 9.10432C5.36902 8.96409 5.25798 8.85011 5.11951 8.78084C5.11951 8.78084 3.66663 8.1125 3.66663 6.1875C3.66663 5.84189 3.76235 5.623 3.83224 5.36125C4.07203 5.6835 4.26965 5.99435 4.6567 6.35132C5.83676 7.43965 7.78721 8.54936 10.7341 8.70744C10.8273 8.71241 10.9206 8.69834 11.0083 8.66609C11.0959 8.63383 11.176 8.58406 11.2438 8.51981C11.3116 8.45556 11.3655 8.37819 11.4024 8.2924C11.4393 8.20661 11.4583 8.11421 11.4583 8.02083V7.33333C11.4583 5.55354 12.8868 4.125 14.6666 4.125Z" fill="#F5F7FA"/>
</svg>
