<svg width="24" height="24" viewBox="0 0 24 24" fill="none" xmlns="http://www.w3.org/2000/svg">
<path d="M12 3C8.37598 3 5.24707 5.15625 3.82031 8.25H5.50781C6.31641 6.8584 7.55859 5.75098 9.04688 5.10938C8.54883 5.95605 8.1416 7.02246 7.875 8.25H9.44531C10.0137 5.9707 11.042 4.5 12 4.5C12.958 4.5 13.9863 5.9707 14.5547 8.25H16.125C15.8584 7.02246 15.4512 5.95605 14.9531 5.10938C16.4414 5.75098 17.6836 6.8584 18.4922 8.25H20.1797C18.7529 5.15625 15.624 3 12 3ZM3 9.75L4.125 14.25H5.22656C5.22656 14.25 6.00586 11.5254 6.02344 11.3203H6.04688C6.05566 11.5049 6.82031 14.25 6.82031 14.25H7.875L9 9.75H8.03906C8.03906 9.75 7.3916 12.4424 7.38281 12.6094H7.35938C7.33887 12.3984 6.60938 9.75 6.60938 9.75H5.57812C5.57812 9.75 4.71973 12.4717 4.71094 12.6328C4.69922 12.4189 4.05469 9.75 4.05469 9.75H3ZM9 9.75L10.125 14.25H11.2266C11.2266 14.25 12.0059 11.5254 12.0234 11.3203H12.0469C12.0557 11.5049 12.8203 14.25 12.8203 14.25H13.875L15 9.75H14.0391C14.0391 9.75 13.3916 12.4424 13.3828 12.6094H13.3594C13.3389 12.3984 12.6094 9.75 12.6094 9.75H11.5781C11.5781 9.75 10.7197 12.4717 10.7109 12.6328C10.6992 12.4189 10.0547 9.75 10.0547 9.75H9ZM15 9.75L16.125 14.25H17.2266C17.2266 14.25 18.0059 11.5254 18.0234 11.3203H18.0469C18.0557 11.5049 18.8203 14.25 18.8203 14.25H19.875L21 9.75H20.0391C20.0391 9.75 19.3916 12.4424 19.3828 12.6094H19.3594C19.3389 12.3984 18.6094 9.75 18.6094 9.75H17.5781C17.5781 9.75 16.7197 12.4717 16.7109 12.6328C16.6992 12.4189 16.0547 9.75 16.0547 9.75H15ZM3.82031 15.75C5.24707 18.8438 8.37598 21 12 21C15.624 21 18.7529 18.8438 20.1797 15.75H18.4922C17.6836 17.1416 16.4414 18.249 14.9531 18.8906C15.4512 18.0439 15.8584 16.9775 16.125 15.75H14.5547C13.9863 18.0293 12.958 19.5 12 19.5C11.042 19.5 10.0137 18.0293 9.44531 15.75H7.875C8.1416 16.9775 8.54883 18.0439 9.04688 18.8906C7.55859 18.249 6.31641 17.1416 5.50781 15.75H3.82031Z" fill="#5B5B5B"/>
</svg>
